<svg width="100" height="150" viewBox="0 0 100 150" fill="none" xmlns="http://www.w3.org/2000/svg">
<path d="M0 25C0 11.1929 11.1929 0 25 0H50V50H0V25Z" fill="#F6781D"/>
<path d="M0 75C0 61.1929 11.1929 50 25 50H50V100H25C11.1929 100 0 88.8071 0 75V75Z" fill="#FF9244"/>
<path d="M0 100H50V150H25C11.1929 150 0 138.807 0 125V100Z" fill="#F6781D"/>
<path d="M50 0H75C88.8071 0 100 11.1929 100 25V25C100 38.8071 88.8071 50 75 50H50V0Z" fill="#FF9244"/>
<path d="M50 75C50 61.1929 61.1929 50 75 50V50C88.8071 50 100 61.1929 100 75V100H75C61.1929 100 50 88.8071 50 75V75Z" fill="#F6781D"/>
<path d="M50 100H100V125C100 138.807 88.8071 150 75 150H50V100Z" fill="#FF9244"/>
</svg>
