<svg width="52" height="50" viewBox="0 0 52 50" fill="none" xmlns="http://www.w3.org/2000/svg">
<path d="M49.7128 7.44963C49.0495 6.78626 48.2621 6.26003 47.3955 5.90101C46.5289 5.54199 45.6001 5.3572 44.662 5.3572C43.724 5.3572 42.7951 5.54199 41.9285 5.90101C41.0619 6.26003 40.2745 6.78626 39.6113 7.44963C39.1618 7.89889 38.7744 8.40632 38.4596 8.95838L32.1612 7.23983C32.1807 5.81892 31.7758 4.42451 30.9984 3.23496C30.221 2.04541 29.1065 1.11481 27.7973 0.562183C26.4881 0.0095597 25.0438 -0.139956 23.6492 0.132761C22.2546 0.405477 20.973 1.08803 19.9684 2.0931C18.8958 3.16827 18.1931 4.55684 17.962 6.05788C17.7309 7.55892 17.9833 9.09456 18.6829 10.4426L11.1078 17.261C9.73348 16.3526 8.08771 15.9465 6.44854 16.1112C4.80937 16.2759 3.27729 17.0013 2.11111 18.1649C0.80717 19.459 0.0520164 21.2057 0.00258833 23.0421C-0.0468398 24.8785 0.613259 26.6633 1.8457 28.0257C3.07814 29.388 4.78813 30.223 6.62029 30.3572C8.45245 30.4914 10.2659 29.9145 11.6837 28.7463L27.3069 40.2093C26.8069 41.4613 26.6715 42.8293 26.9163 44.155C27.1612 45.4808 27.7763 46.7102 28.6905 47.7011C29.6047 48.6919 30.7807 49.4038 32.0825 49.7543C33.3843 50.1049 34.7588 50.0798 36.0469 49.682C37.3351 49.2842 38.4843 48.53 39.3618 47.5064C40.2393 46.4829 40.8091 45.2319 41.0055 43.8981C41.2018 42.5643 41.0166 41.2021 40.4713 39.9692C39.926 38.7362 39.0428 37.6827 37.924 36.9306L44.0371 19.6134C44.2424 19.6313 44.4478 19.6402 44.6531 19.6402C46.0654 19.64 47.4459 19.2211 48.6201 18.4364C49.7943 17.6518 50.7096 16.5366 51.2501 15.2319C51.7907 13.9272 51.9323 12.4915 51.6571 11.1063C51.3819 9.72108 50.7021 8.44858 49.7038 7.44963H49.7128ZM22.4838 4.61737C22.9833 4.11835 23.6196 3.77864 24.3122 3.64117C25.0048 3.5037 25.7226 3.57465 26.3749 3.84505C27.0272 4.11545 27.5847 4.57316 27.9769 5.16032C28.3691 5.74749 28.5785 6.43775 28.5785 7.14386C28.5785 7.84997 28.3691 8.54024 27.9769 9.1274C27.5847 9.71456 27.0272 10.1723 26.3749 10.4427C25.7226 10.7131 25.0048 10.784 24.3122 10.6466C23.6196 10.5091 22.9833 10.1694 22.4838 9.67036C22.1523 9.33812 21.8896 8.94381 21.7107 8.50998C21.5317 8.07615 21.4401 7.6113 21.4409 7.14201C21.4417 6.67272 21.535 6.2082 21.7155 5.775C21.896 5.34181 22.1601 4.94843 22.4927 4.61737H22.4838ZM4.62867 25.7422C4.29665 25.4105 4.03326 25.0167 3.85355 24.5832C3.67384 24.1496 3.58134 23.685 3.58134 23.2157C3.58134 22.7464 3.67384 22.2817 3.85355 21.8482C4.03326 21.4147 4.29665 21.0208 4.62867 20.6892C5.12825 20.1902 5.76455 19.8504 6.45715 19.713C7.14975 19.5755 7.86756 19.6465 8.51985 19.9169C9.17213 20.1873 9.72962 20.645 10.1218 21.2321C10.514 21.8193 10.7234 22.5096 10.7234 23.2157C10.7234 23.9218 10.514 24.612 10.1218 25.1992C9.72962 25.7864 9.17213 26.2441 8.51985 26.5145C7.86756 26.7849 7.14975 26.8558 6.45715 26.7184C5.76455 26.5809 5.12825 26.2412 4.62867 25.7422ZM36.4665 45.3828C35.7968 46.0525 34.8884 46.4288 33.9411 46.4288C32.9939 46.4288 32.0855 46.0525 31.4158 45.3828C30.746 44.713 30.3697 43.8046 30.3697 42.8574C30.3697 41.9102 30.746 41.0018 31.4158 40.332C31.7474 40.0004 32.1411 39.7373 32.5744 39.5578C33.0077 39.3783 33.4721 39.286 33.9411 39.286C34.4102 39.286 34.8746 39.3783 35.3079 39.5578C35.7412 39.7373 36.1349 40.0004 36.4665 40.332C36.7982 40.6636 37.0612 41.0574 37.2407 41.4907C37.4202 41.924 37.5126 42.3884 37.5126 42.8574C37.5126 43.3264 37.4202 43.7908 37.2407 44.2241C37.0612 44.6574 36.7982 45.0511 36.4665 45.3828ZM34.5583 35.7455C32.7067 35.5842 30.8653 36.1511 29.4249 37.3257L13.8017 25.8627C14.1803 24.9076 14.3496 23.8823 14.298 22.8562C14.2464 21.8301 13.9752 20.827 13.5027 19.9147L21.0799 13.0963C21.8951 13.6366 22.8125 14.0037 23.7754 14.1749C24.7383 14.3461 25.726 14.3177 26.6775 14.0915C27.6289 13.8653 28.5238 13.4461 29.3066 12.8599C30.0894 12.2737 30.7435 11.533 31.2283 10.6836L37.5177 12.4044C37.5007 13.5917 37.78 14.7644 38.3302 15.8166C38.8805 16.8688 39.6844 17.7672 40.6692 18.4305L34.5583 35.7455ZM47.1818 15.0247C46.8553 15.3775 46.4609 15.6608 46.0223 15.8576C45.5837 16.0544 45.1098 16.1605 44.6292 16.1698C44.1485 16.179 43.6709 16.091 43.2251 15.9112C42.7792 15.7314 42.3743 15.4635 42.0345 15.1234C41.6947 14.7833 41.4271 14.3781 41.2477 13.9321C41.0683 13.4861 40.9807 13.0084 40.9904 12.5278C41 12.0471 41.1066 11.5734 41.3038 11.1349C41.5009 10.6964 41.7846 10.3023 42.1377 9.97613C42.8075 9.30635 43.7159 8.93008 44.6631 8.93008C45.6103 8.93008 46.5187 9.30635 47.1885 9.97613C47.8583 10.6459 48.2346 11.5543 48.2346 12.5015C48.2346 13.4487 47.8583 14.3571 47.1885 15.0269L47.1818 15.0247Z" fill="#FCFCFC"/>
</svg>
